<mxfile host="65bd71144e">
    <diagram id="T9uuaTeBy4bPSP1g8a4x" name="Page-1">
        <mxGraphModel dx="587" dy="509" grid="1" gridSize="10" guides="1" tooltips="1" connect="1" arrows="1" fold="1" page="1" pageScale="1" pageWidth="827" pageHeight="1169" background="#FFFFFF" math="0" shadow="0">
            <root>
                <mxCell id="0"/>
                <mxCell id="1" parent="0"/>
                <mxCell id="220" value="" style="rounded=0;whiteSpace=wrap;html=1;fillColor=#d5e8d4;strokeColor=#82b366;" vertex="1" parent="1">
                    <mxGeometry x="610" y="240" width="60" height="120" as="geometry"/>
                </mxCell>
                <mxCell id="224" value="" style="rounded=0;whiteSpace=wrap;html=1;fillColor=#d5e8d4;strokeColor=#82b366;" vertex="1" parent="1">
                    <mxGeometry x="530" y="220" width="60" height="140" as="geometry"/>
                </mxCell>
                <mxCell id="218" value="" style="rounded=0;whiteSpace=wrap;html=1;fillColor=#d5e8d4;strokeColor=#82b366;" vertex="1" parent="1">
                    <mxGeometry x="450" y="280" width="60" height="80" as="geometry"/>
                </mxCell>
                <mxCell id="217" value="" style="rounded=0;whiteSpace=wrap;html=1;fillColor=#d5e8d4;strokeColor=#82b366;" vertex="1" parent="1">
                    <mxGeometry x="370" y="240" width="60" height="120" as="geometry"/>
                </mxCell>
                <mxCell id="207" value="" style="rounded=0;whiteSpace=wrap;html=1;fillColor=#d5e8d4;strokeColor=#82b366;" vertex="1" parent="1">
                    <mxGeometry x="290" y="320" width="60" height="40" as="geometry"/>
                </mxCell>
                <mxCell id="206" value="" style="rounded=0;whiteSpace=wrap;html=1;fillColor=#d5e8d4;strokeColor=#82b366;" vertex="1" parent="1">
                    <mxGeometry x="210" y="340" width="60" height="20" as="geometry"/>
                </mxCell>
                <mxCell id="186" value="" style="endArrow=none;html=1;rounded=0;" parent="1" edge="1">
                    <mxGeometry width="50" height="50" relative="1" as="geometry">
                        <mxPoint x="200" y="360" as="sourcePoint"/>
                        <mxPoint x="200" y="160" as="targetPoint"/>
                    </mxGeometry>
                </mxCell>
                <mxCell id="187" value="" style="endArrow=none;html=1;rounded=0;" parent="1" edge="1">
                    <mxGeometry width="50" height="50" relative="1" as="geometry">
                        <mxPoint x="200" y="360" as="sourcePoint"/>
                        <mxPoint x="720" y="360" as="targetPoint"/>
                    </mxGeometry>
                </mxCell>
                <mxCell id="189" value="0" style="rounded=0;whiteSpace=wrap;html=1;strokeColor=none;fillColor=none;align=right;" parent="1" vertex="1">
                    <mxGeometry x="160" y="350" width="30" height="20" as="geometry"/>
                </mxCell>
                <mxCell id="196" value="Work" style="rounded=0;whiteSpace=wrap;html=1;strokeColor=none;fillColor=none;align=center;fontStyle=1" parent="1" vertex="1">
                    <mxGeometry x="140" y="160" width="60" height="200" as="geometry"/>
                </mxCell>
                <mxCell id="197" value="Iteration" style="rounded=0;whiteSpace=wrap;html=1;strokeColor=none;fillColor=none;align=center;fontStyle=1" parent="1" vertex="1">
                    <mxGeometry x="200" y="380" width="520" height="30" as="geometry"/>
                </mxCell>
                <mxCell id="208" value="1" style="rounded=0;whiteSpace=wrap;html=1;strokeColor=none;fillColor=none;align=center;" vertex="1" parent="1">
                    <mxGeometry x="230" y="360" width="20" height="20" as="geometry"/>
                </mxCell>
                <mxCell id="209" value="2" style="rounded=0;whiteSpace=wrap;html=1;strokeColor=none;fillColor=none;align=center;" vertex="1" parent="1">
                    <mxGeometry x="310" y="360" width="20" height="20" as="geometry"/>
                </mxCell>
                <mxCell id="210" value="3" style="rounded=0;whiteSpace=wrap;html=1;strokeColor=none;fillColor=none;align=center;" vertex="1" parent="1">
                    <mxGeometry x="390" y="360" width="20" height="20" as="geometry"/>
                </mxCell>
                <mxCell id="211" value="4" style="rounded=0;whiteSpace=wrap;html=1;strokeColor=none;fillColor=none;align=center;" vertex="1" parent="1">
                    <mxGeometry x="470" y="360" width="20" height="20" as="geometry"/>
                </mxCell>
                <mxCell id="212" value="5" style="rounded=0;whiteSpace=wrap;html=1;strokeColor=none;fillColor=none;align=center;" vertex="1" parent="1">
                    <mxGeometry x="550" y="360" width="20" height="20" as="geometry"/>
                </mxCell>
                <mxCell id="213" value="6" style="rounded=0;whiteSpace=wrap;html=1;strokeColor=none;fillColor=none;align=center;" vertex="1" parent="1">
                    <mxGeometry x="630" y="360" width="20" height="20" as="geometry"/>
                </mxCell>
                <mxCell id="226" value="" style="endArrow=none;html=1;rounded=0;dashed=1;strokeWidth=2;curved=1;fillColor=#d5e8d4;strokeColor=#82b366;exitX=0.5;exitY=0;exitDx=0;exitDy=0;" edge="1" parent="1" source="206">
                    <mxGeometry width="50" height="50" relative="1" as="geometry">
                        <mxPoint x="490" y="300" as="sourcePoint"/>
                        <mxPoint x="640" y="200" as="targetPoint"/>
                        <Array as="points">
                            <mxPoint x="480" y="200"/>
                        </Array>
                    </mxGeometry>
                </mxCell>
                <mxCell id="221" value="" style="endArrow=none;html=1;exitX=0.5;exitY=0;exitDx=0;exitDy=0;entryX=0.5;entryY=0;entryDx=0;entryDy=0;fillColor=#d5e8d4;strokeColor=#82B366;rounded=0;strokeWidth=2;" edge="1" parent="1" source="206" target="220">
                    <mxGeometry width="50" height="50" relative="1" as="geometry">
                        <mxPoint x="410" y="300" as="sourcePoint"/>
                        <mxPoint x="460" y="250" as="targetPoint"/>
                        <Array as="points">
                            <mxPoint x="320" y="320"/>
                            <mxPoint x="400" y="240"/>
                            <mxPoint x="480" y="280"/>
                            <mxPoint x="560" y="220"/>
                        </Array>
                    </mxGeometry>
                </mxCell>
                <mxCell id="228" value="&lt;font color=&quot;#82b366&quot;&gt;Projected&lt;/font&gt;" style="text;html=1;strokeColor=none;fillColor=none;align=center;verticalAlign=middle;whiteSpace=wrap;rounded=0;" vertex="1" parent="1">
                    <mxGeometry x="640" y="190" width="60" height="20" as="geometry"/>
                </mxCell>
                <mxCell id="229" value="&lt;font&gt;Actual&lt;/font&gt;" style="text;html=1;strokeColor=none;fillColor=none;align=center;verticalAlign=middle;whiteSpace=wrap;rounded=0;fontColor=#82B366;" vertex="1" parent="1">
                    <mxGeometry x="640" y="220" width="60" height="20" as="geometry"/>
                </mxCell>
            </root>
        </mxGraphModel>
    </diagram>
</mxfile>